<?xml version="1.0" encoding="utf-8"?>
<!-- Generator: Adobe Illustrator 16.0.0, SVG Export Plug-In . SVG Version: 6.00 Build 0)  -->
<!DOCTYPE svg PUBLIC "-//W3C//DTD SVG 1.1//EN" "http://www.w3.org/Graphics/SVG/1.1/DTD/svg11.dtd">
<svg version="1.1" id="Layer_1" xmlns="http://www.w3.org/2000/svg" xmlns:xlink="http://www.w3.org/1999/xlink" x="0px" y="0px"
	 width="647px" height="317.659px" viewBox="20.5 145.5 647 317.659" enable-background="new 20.5 145.5 647 317.659"
	 xml:space="preserve">
<path fill="#77A6EA" d="M101.829,270.585c6.769,7.768,4.372,39.035,4.372,39.035s26.424-5.68,32.094,0
	c5.829,5.829,6.415,27.791,0,32.989c-6.242,5.026-32.094,0-32.094,0v52.105c0,17.372,4.12,25.324,17.67,25.324
	c5.588,0,43.328-1.698,46.575-2.284l-2.834,31.198c-5.886,2.353-46.689,7.598-59.346,7.598c-14.435,0-26.505-5.004-33.573-12.37
	c-8.239-8.537-12.369-22.376-12.369-42.696v-58.875c0,0-24.715,4.808-30.694,0c-6.414-5.198-5.817-27.16,0-32.989
	c5.427-5.428,30.694,0,30.694,0c0.504,3.614-1.229-33.746,3.041-38.015C73.119,263.85,95.093,262.863,101.829,270.585z"/>
<rect x="161.5" y="320.5" fill="#77A6EA" width="47" height="129"/>
<g>
	<g>
		<path fill="#77A6EA" d="M221.082,362.174c0-16.972-0.437-31.429-0.884-43.385h13.472c8.172,0,15.209,4.131,15.638,9.18
			s0.925,9.18,1.102,9.18s4.013-5.574,8.525-12.387c0,0,5.978-9.025,24.566-9.025c13.942,0,25.015,8.904,29.673,23.087l0,0
			c0.24,0,4.298-5.458,9.019-12.128c0,0,0.276-0.391,5.36-4.281c5.978-4.452,12.62-6.678,20.596-6.678
			c20.803,0,36.512,18.359,36.512,58.955v65.223c0,8.172-6.686,14.857-14.857,14.857h-3.033c-8.172,0-14.857-6.686-14.857-14.857
			v-44.261c0-8.172-1.079-21.455-2.398-29.52c0,0-2.696-16.479-13.551-16.479c-7.745,0-13.288,6.679-15.49,14.745
			c-0.896,3.063-1.331,7.504-1.331,10.843v64.672c0,8.172-6.686,14.857-14.857,14.857h-3.045c-8.172,0-14.857-6.686-14.857-14.857
			v-46.475c0-8.172-1.111-21.45-2.471-29.508c0,0-2.407-14.277-13.03-14.277c-8.629,0-13.724,8.354-15.721,15.308
			c-1.09,3.327-1.308,7.229-1.308,10.556v64.396c0,8.172-6.686,14.857-14.857,14.857h-3.056c-8.172,0-14.857-6.686-14.857-14.857
			V362.174z"/>
	</g>
</g>
<g>
	<g>
		<path fill="#77A6EA" d="M428.768,403.011c1.308,17.234,17.623,25.427,36.282,25.427c13.666,0,24.692-1.904,35.478-5.462
			l2.529,13.552c1.499,8.033-3.711,16.414-11.578,18.624c0,0-14.864,4.176-32.225,4.176c-43.625,0-68.605-26.231-68.605-68.066
			c0-33.896,20.241-71.347,64.935-71.347c41.525,0,57.291,33.62,57.291,66.711c0,7.103,0,7.103,0,7.103
			c-0.719,5.105-7.993,9.283-16.165,9.283H428.768z M475.812,374.589c0-10.109-4.199-27.057-22.593-27.057
			c-16.82,0-20.548,12.793-20.548,12.793c-2.286,7.845,2.529,14.264,10.701,14.264H475.812z"/>
	</g>
</g>
<g>
	<g>
		<path fill="#77A6EA" d="M515.95,245.81c0-8.172,6.625-15.756,14.723-16.854c0,0,20.904-2.834,43.29-2.834
			c27.378,0,44.154,3.109,58.589,13.138c13.838,8.629,23.844,24.521,23.844,45.611c0,20.722-10.292,40.068-32.68,49.74l0,0
			c0,0.385,5.498,4.504,12.219,9.152c0,0,27.243,18.846,27.243,48.92c0,21.067-8.251,37.647-20.62,49.396
			c-14.411,13.483-38.565,21.079-78.026,21.079c-22.076,0-33.848-1.529-33.848-1.529c-8.104-1.052-14.733-8.599-14.733-16.771
			V245.81z M560.413,305.262c0,8.172,3.313,14.857,7.36,14.857s13.737-2.008,21.531-4.463c0,0,22.042-6.942,22.042-24.222
			c0-17.625-11.474-26.965-31.795-26.965c-9.719,0-9.719,0-9.719,0c-5.181,0.757-9.42,8.063-9.42,16.234V305.262z M560.413,423.423
			c4.416,0.689,9.719,0.689,17.371,0.689c20.321,0,38.279-8.984,38.279-33.517c0-23.5-17.958-32.816-40.333-32.816h-0.46
			c-8.172,0-14.857,6.686-14.857,14.857V423.423z"/>
	</g>
</g>
<path fill="none" stroke="#77A6EA" stroke-width="19.8096" stroke-miterlimit="10" d="M251.933,247.51
	c0,37.498-30.396,67.882-67.872,67.882c-37.498,0-67.881-30.385-67.881-67.882c0-37.487,30.383-67.882,67.881-67.882
	C221.537,179.628,251.933,210.023,251.933,247.51z"/>
<g>
	<g>
		<path fill="#77A6EA" d="M188.992,173.5c0.037-4.092,0.43-7.443,2.942-10.077c6.608-6.93-3.883-17.451-10.506-10.506
			c-5.455,5.721-7.223,12.849-7.293,20.583C174.048,183.085,188.905,183.076,188.992,173.5L188.992,173.5z"/>
	</g>
</g>
<g>
	<g>
		<path fill="#77A6EA" d="M163.446,174.869c-2.045-4.091-4.09-8.182-6.127-12.278c-1.802-3.624-6.85-4.606-10.164-2.665
			c-3.666,2.147-4.468,6.538-2.665,10.164c2.037,4.095,4.082,8.187,6.127,12.278c1.81,3.62,6.844,4.609,10.164,2.665
			C164.44,182.889,165.256,178.491,163.446,174.869L163.446,174.869z"/>
	</g>
</g>
<g>
	<g>
		<path fill="#77A6EA" d="M217.62,182.703c0.111-3.385,2.479-6.984,5.524-8.915c8.065-5.114,0.618-17.976-7.499-12.829
			c-7.564,4.797-12.584,12.704-12.882,21.744C202.447,192.289,217.305,192.258,217.62,182.703L217.62,182.703z"/>
	</g>
</g>
<g>
	<g>
		<path fill="#77A6EA" d="M150.991,253.167c2.881-15.747,14.561-30.978,31.69-31.344c16.362-0.35,27.503,17.684,31.677,31.344
			c2.791,9.136,17.133,5.238,14.326-3.949c-6.369-20.845-22.493-41.693-46.003-42.252c-23.356-0.555-42.063,20.642-46.016,42.252
			C134.952,258.583,149.269,262.583,150.991,253.167L150.991,253.167z"/>
	</g>
</g>
</svg>
